<svg xmlns="http://www.w3.org/2000/svg" width="22" height="22">
	<path fill-rule="evenodd" d="M1.692 0A1.692 1.692 0 0 0 0 1.692v18.616A1.692 1.692 0 0 0 1.692 22h18.616A1.692 1.692 0 0 0 22 20.308V1.692A1.692 1.692 0 0 0 20.308 0H1.692ZM3.47 8.462h3.216v10.153H3.469V8.462Zm3.427-3.377a1.82 1.82 0 1 1-3.638 0 1.82 1.82 0 0 1 3.638 0Zm11.72 7.365c0-3.054-1.976-4.242-3.937-4.242a3.723 3.723 0 0 0-1.853.39c-.435.22-.89.718-1.242 1.588h-.09V8.462H8.462v10.162h3.225v-5.407c-.046-.553.13-1.27.493-1.694.363-.426.88-.528 1.274-.579h.123c1.026 0 1.787.635 1.787 2.234v5.444h3.226l.025-6.172Z" clip-rule="evenodd"/>
</svg>