<svg xmlns="http://www.w3.org/2000/svg" width="341" height="319" fill="none"><path stroke="#AE6B3F" stroke-width="5" d="m178.816 7.333 127.658 68.948a17.5 17.5 0 0 1 9.183 15.398V227.32c0 6.43-3.526 12.342-9.183 15.398l-127.658 68.948a17.5 17.5 0 0 1-16.632 0L34.526 242.719a17.5 17.5 0 0 1-9.183-15.398V91.679a17.5 17.5 0 0 1 9.183-15.398L162.184 7.333a17.499 17.499 0 0 1 16.632 0Z"/><path fill="#AE6B3F" d="M96.056 219V98.14h71.22v23.409h-41.753v27.309h36.358v21.333h-36.358V219H96.056Zm70.52-97.451V98.141h92.969v23.408h-31.46V219h-29.883v-97.451h-31.626Z"/></svg>